# xmcd
#
# Track frame offsets:
# 150
# 34789
# 46533
# 59970
# 74118
# 88178
# 107937
# 121135
# 150408
# 167365
# 187469
# 205112
# 217883
# 239664
#
# Disc length: 3375 seconds
#
#
# Revision: 0
# Processed by: cddbd v1.5.2PL0 Copyright (c) Steve Scherf et al.
# Submitted via: FreeRIP 2.945 
#
DISCID=ce0d2d0e
DTITLE=el gaucho bataraz - Pa´reirse y llorar
DYEAR=1900
DGENRE=Folklore
TTITLE0=Confundido y estresau
TTITLE1=Coplas del solitario
TTITLE2=Corazon del puerto
TTITLE3=Correo del campo
TTITLE4=El buen uso del idioma
TTITLE5=El mate y sus variaciones
TTITLE6=El sulki cupe
TTITLE7=Guajira de mi bacon
TTITLE8=La cordion de mi patrona
TTITLE9=La sara trabaja
TTITLE10=Mas que una yunta de gueyes
TTITLE11=Si, Adelita
TTITLE12=Viva el rio
TTITLE13=Votando por primera vez
EXTD=
EXTT0=
EXTT1=
EXTT2=
EXTT3=
EXTT4=
EXTT5=
EXTT6=
EXTT7=
EXTT8=
EXTT9=
EXTT10=
EXTT11=
EXTT12=
EXTT13=
PLAYORDER=
